<svg width="1021" height="154" viewBox="0 0 1021 154" xmlns="http://www.w3.org/2000/svg"> 
	<path 
		d="M259.345,132.133c-7.231,0 -14.035,-1.379 -20.41,-4.139c-6.374,-2.76 -11.941,-6.518 -16.698,-11.275c-4.662,-4.758 -8.373,-10.276 -11.133,-16.556c-2.76,-6.375 -4.139,-13.179 -4.139,-20.41c0,-7.231 1.379,-13.987 4.139,-20.267c2.76,-6.375 6.471,-11.941 11.133,-16.699c4.757,-4.757 10.324,-8.516 16.698,-11.275c6.375,-2.759 13.179,-4.139 20.41,-4.139c5.233,-0 10.228,0.666 14.986,1.998c4.853,1.332 9.277,3.235 13.274,5.709c4.091,2.379 7.755,5.281 10.989,8.706c3.235,3.331 5.947,7.089 8.136,11.276l-19.982,10.847c-2.854,-5.138 -6.565,-9.182 -11.132,-12.132c-4.473,-2.95 -9.896,-4.424 -16.271,-4.424c-4.187,-0 -8.087,0.808 -11.703,2.426c-3.521,1.617 -6.614,3.853 -9.277,6.708c-2.664,2.76 -4.758,5.994 -6.28,9.705c-1.522,3.616 -2.284,7.47 -2.284,11.561c0,4.091 0.762,7.993 2.284,11.703c1.522,3.616 3.616,6.851 6.28,9.706c2.663,2.759 5.756,4.947 9.277,6.565c3.616,1.618 7.516,2.426 11.703,2.426c6.375,0 11.798,-1.475 16.271,-4.424c4.567,-2.949 8.278,-6.994 11.132,-12.132l19.982,10.847c-2.189,4.187 -4.901,7.993 -8.136,11.418c-3.234,3.331 -6.898,6.232 -10.989,8.707c-3.997,2.378 -8.421,4.233 -13.274,5.566c-4.758,1.332 -9.753,1.998 -14.986,1.998Z" /> 
	<path 
		d="M318.141,59.058l21.552,-0l-0,10.704c1.141,-3.14 3.234,-5.851 6.279,-8.135c3.14,-2.284 6.709,-3.425 10.705,-3.425c1.047,-0 2.141,0.047 3.283,0.142c1.141,0.095 2.378,0.333 3.71,0.714l0,21.837c-1.617,-0.571 -3.187,-0.999 -4.71,-1.285c-1.522,-0.285 -3.139,-0.428 -4.852,-0.428c-4.662,0 -8.23,1.618 -10.705,4.853c-2.474,3.235 -3.71,7.421 -3.71,12.56l-0,33.825l-21.552,0l0,-71.362Z" /> 
	<path 
		d="M402.026,131.99c-4.662,0 -9.038,-0.999 -13.13,-2.997c-3.997,-1.998 -7.469,-4.662 -10.419,-7.993c-2.95,-3.425 -5.281,-7.373 -6.994,-11.846c-1.713,-4.567 -2.569,-9.372 -2.569,-14.415c0,-5.043 0.856,-9.8 2.569,-14.272c1.713,-4.568 4.044,-8.516 6.994,-11.847c2.95,-3.425 6.422,-6.137 10.419,-8.135c4.092,-1.998 8.468,-2.997 13.13,-2.997c2.38,-0 4.567,0.285 6.566,0.856c2.093,0.476 3.949,1.142 5.566,1.998c1.713,0.857 3.14,1.808 4.282,2.855c1.237,1.047 2.236,2.046 2.997,2.997l-0,-7.136l21.551,-0l0,71.362l-21.551,0l-0,-7.136c-0.761,0.951 -1.76,1.95 -2.997,2.997c-1.142,1.047 -2.569,1.998 -4.282,2.855c-1.617,0.856 -3.473,1.522 -5.566,1.998c-1.999,0.571 -4.186,0.856 -6.566,0.856Zm4.853,-19.553c4.853,-0 8.754,-1.665 11.703,-4.995c3.045,-3.331 4.568,-7.565 4.568,-12.703c-0,-5.138 -1.523,-9.372 -4.568,-12.702c-2.949,-3.331 -6.85,-4.996 -11.703,-4.996c-4.853,0 -8.801,1.665 -11.846,4.996c-2.95,3.33 -4.425,7.564 -4.425,12.702c0,5.138 1.475,9.372 4.425,12.703c3.045,3.33 6.993,4.995 11.846,4.995Z" /> 
	<path 
		d="M501.689,131.99c-2.379,0 -4.615,-0.285 -6.708,-0.856c-1.999,-0.476 -3.854,-1.142 -5.567,-1.998c-1.618,-0.857 -3.045,-1.808 -4.281,-2.855c-1.237,-1.047 -2.189,-2.046 -2.855,-2.997l0,7.136l-21.551,0l-0,-107.043l21.551,-0l0,42.817c0.666,-0.951 1.618,-1.95 2.855,-2.997c1.236,-1.047 2.663,-1.998 4.281,-2.855c1.713,-0.856 3.568,-1.522 5.567,-1.998c2.093,-0.571 4.329,-0.856 6.708,-0.856c4.662,-0 8.991,0.999 12.988,2.997c4.091,1.998 7.612,4.71 10.561,8.135c2.95,3.331 5.281,7.279 6.994,11.847c1.712,4.472 2.569,9.229 2.569,14.272c-0,5.043 -0.857,9.848 -2.569,14.415c-1.713,4.473 -4.044,8.421 -6.994,11.846c-2.949,3.331 -6.47,5.995 -10.561,7.993c-3.997,1.998 -8.326,2.997 -12.988,2.997Zm-4.853,-19.553c4.853,-0 8.754,-1.665 11.703,-4.995c3.045,-3.331 4.568,-7.565 4.568,-12.703c-0,-5.138 -1.523,-9.372 -4.568,-12.702c-2.949,-3.331 -6.85,-4.996 -11.703,-4.996c-4.853,0 -8.801,1.665 -11.846,4.996c-2.95,3.33 -4.425,7.564 -4.425,12.702c0,5.138 1.475,9.372 4.425,12.703c3.045,3.33 6.993,4.995 11.846,4.995Z" /> 
	<path 
		d="M620.376,130.42l-49.383,-62.656l0,62.656l-22.693,0l0,-101.334l19.554,-0l49.24,62.656l-0,-62.656l22.836,-0l-0,101.334l-19.554,0Z" /> 
	<path 
		d="M691.353,131.99c-5.233,0 -10.181,-0.856 -14.843,-2.569c-4.567,-1.712 -8.563,-4.187 -11.989,-7.421c-3.425,-3.235 -6.137,-7.137 -8.135,-11.704c-1.998,-4.662 -2.997,-9.848 -2.997,-15.557c-0,-5.329 0.903,-10.228 2.711,-14.701c1.903,-4.567 4.52,-8.515 7.85,-11.846c3.426,-3.33 7.422,-5.946 11.989,-7.85c4.567,-1.903 9.563,-2.854 14.986,-2.854c4.662,-0 9.135,0.761 13.416,2.283c4.377,1.428 8.183,3.616 11.418,6.566c3.235,2.854 5.804,6.47 7.708,10.847c1.998,4.282 2.997,9.325 2.997,15.129c-0,0.951 -0.048,2.046 -0.143,3.282c0,1.142 -0.096,2.569 -0.285,4.282l-51.81,0c0.666,4.282 2.712,7.47 6.138,9.563c3.425,1.998 7.183,2.997 11.275,2.997c4.186,-0 7.754,-0.809 10.704,-2.426c3.044,-1.713 5.233,-3.616 6.566,-5.709l15.985,11.989c-3.331,4.757 -7.898,8.563 -13.702,11.418c-5.709,2.854 -12.322,4.281 -19.839,4.281Zm13.702,-46.243c-0.952,-3.805 -2.854,-6.517 -5.709,-8.135c-2.854,-1.713 -5.852,-2.569 -8.992,-2.569c-1.617,0 -3.235,0.191 -4.852,0.571c-1.618,0.38 -3.14,0.999 -4.567,1.855c-1.428,0.857 -2.712,1.951 -3.854,3.283c-1.047,1.332 -1.808,2.997 -2.284,4.995l30.258,0Z" /> 
	<path 
		d="M781.005,131.99c-2.378,0 -4.614,-0.285 -6.708,-0.856c-1.998,-0.476 -3.853,-1.142 -5.566,-1.998c-1.617,-0.857 -3.044,-1.808 -4.282,-2.855c-1.236,-1.047 -2.188,-2.046 -2.854,-2.997l-0,7.136l-21.552,0l0,-107.043l21.552,-0l-0,42.817c0.666,-0.951 1.618,-1.95 2.854,-2.997c1.238,-1.047 2.665,-1.998 4.282,-2.855c1.713,-0.856 3.568,-1.522 5.566,-1.998c2.094,-0.571 4.33,-0.856 6.708,-0.856c4.663,-0 8.992,0.999 12.988,2.997c4.092,1.998 7.615,4.71 10.56,8.135c2.954,3.331 5.28,7.279 6.996,11.847c1.716,4.472 2.566,9.229 2.566,14.272c-0,5.043 -0.85,9.848 -2.566,14.415c-1.716,4.473 -4.042,8.421 -6.996,11.846c-2.945,3.331 -6.468,5.995 -10.56,7.993c-3.996,1.998 -8.325,2.997 -12.988,2.997Zm-4.852,-19.553c4.852,-0 8.754,-1.665 11.703,-4.995c3.045,-3.331 4.567,-7.565 4.567,-12.703c0,-5.138 -1.522,-9.372 -4.567,-12.702c-2.949,-3.331 -6.851,-4.996 -11.703,-4.996c-4.853,0 -8.801,1.665 -11.847,4.996c-2.949,3.33 -4.424,7.564 -4.424,12.702c-0,5.138 1.475,9.372 4.424,12.703c3.046,3.33 6.994,4.995 11.847,4.995Z" /> 
	<path 
		d="M853.69,131.99c-8.844,0 -15.551,-2.949 -20.122,-8.849c-4.57,-5.899 -6.847,-13.701 -6.847,-23.407l-0,-40.676l21.549,-0l-0,36.966c-0,5.233 0.808,9.277 2.425,12.131c1.716,2.855 4.571,4.282 8.564,4.282c4.092,-0 7.326,-1.475 9.702,-4.424c2.475,-2.95 3.712,-7.708 3.712,-14.273l0,-34.682l21.558,-0l-0,71.362l-21.558,0l0,-7.279c-1.707,2.475 -4.141,4.568 -7.276,6.28c-3.143,1.713 -7.046,2.569 -11.707,2.569Z" /> 
	<rect x="911.902" y="23.377" width="21.549" height="107.044" /> 
	<path 
		d="M980.031,131.99c-4.662,0 -9.034,-0.999 -13.126,-2.997c-4.001,-1.998 -7.475,-4.662 -10.42,-7.993c-2.953,-3.425 -5.28,-7.373 -6.996,-11.846c-1.708,-4.567 -2.566,-9.372 -2.566,-14.415c0,-5.043 0.858,-9.8 2.566,-14.272c1.716,-4.568 4.043,-8.516 6.996,-11.847c2.945,-3.425 6.419,-6.137 10.42,-8.135c4.092,-1.998 8.464,-2.997 13.126,-2.997c2.384,-0 4.57,0.285 6.567,0.856c2.095,0.476 3.951,1.142 5.568,1.998c1.716,0.857 3.144,1.808 4.282,2.855c1.238,1.047 2.236,2.046 2.995,2.997l-0,-7.136l21.557,-0l-0,71.362l-21.557,0l-0,-7.136c-0.759,0.951 -1.757,1.95 -2.995,2.997c-1.138,1.047 -2.566,1.998 -4.282,2.855c-1.617,0.856 -3.473,1.522 -5.568,1.998c-1.997,0.571 -4.183,0.856 -6.567,0.856Zm4.859,-19.553c4.851,-0 8.753,-1.665 11.698,-4.995c3.045,-3.331 4.571,-7.565 4.571,-12.703c-0,-5.138 -1.526,-9.372 -4.571,-12.702c-2.945,-3.331 -6.847,-4.996 -11.698,-4.996c-4.859,0 -8.803,1.665 -11.847,4.996c-2.954,3.33 -4.43,7.564 -4.43,12.702c-0,5.138 1.476,9.372 4.43,12.703c3.044,3.33 6.988,4.995 11.847,4.995Z" /> 
	<path 
		d="M64.281,29.829c-25.408,33.497 -25.261,76.295 0.328,95.591c6.725,5.071 14.537,8.015 22.863,8.99c-23.617,19.181 -50.822,25.134 -69.192,12.641c-25.192,-17.134 -24.226,-62.472 2.158,-101.266c22.031,-32.394 54.818,-49.982 79.705,-44.928c-13.144,5.814 -25.763,15.656 -35.862,28.972Zm33.384,42.781c-11.866,11.214 -25.428,18.667 -36.878,21.147c6.761,24.165 32.75,26.023 32.75,26.023c-0,0 15.466,-3.557 27.146,-29.797c9.617,-21.608 8.778,-43.935 -0.915,-55.298c-0.806,10.982 -8.721,25.279 -22.103,37.925Z" /> 
</svg>