<svg class="impierce-logo" width="100%" height="100%" viewBox="0 0 9375 3125" version="1.1"
    xmlns="http://www.w3.org/2000/svg" xmlns:xlink="http://www.w3.org/1999/xlink"
    xml:space="preserve" xmlns:serif="http://www.serif.com/"
    style="fill-rule:evenodd;clip-rule:evenodd;stroke-linejoin:round;stroke-miterlimit:2;">
    <style>
        .impierce-logo path, 
        .impierce-logo rect {
            fill: #006db1;
        }
        @media (prefers-color-scheme: dark) {
            .impierce-logo path, .impierce-logo rect {
                fill: #fff;
            }
        }
        html[data-color-mode="dark"] .impierce-logo path, 
        html[data-color-mode="dark"] .impierce-logo rect {
            fill: #fff;
        }
    </style>
    
    <path d="M1230.12,287.897c-130.625,75 -277.5,159.375 -326.562,187.187l-89.063,50.938l1.25,738.75c0.625,406.25 1.25,738.75 1.563,739.062c0.312,0.313 46.25,-24.375 101.875,-55.312l101.562,-55.938l0.938,-638.437l0.625,-638.438l222.187,-128.125c122.188,-70.625 223.75,-128.437 225.938,-129.062c1.875,-0.313 238.437,134.687 525.312,300.312l521.875,301.25l0,1208.44l-152.187,87.5l-152.188,87.812l-0.312,104.063l-0,104.062l8.75,-4.687c4.687,-2.5 113.125,-65 241.25,-138.75l232.812,-134.063l0,-1420l-335.937,-193.75c-731.875,-422.187 -883.438,-509.062 -887.813,-509.062c-2.5,-0 -111.25,61.25 -241.875,136.25Z" style="fill-rule:nonzero;"/><path d="M439.49,743.834l-190.625,110.313l0,1420.62l609.375,350.937c335,193.125 611.563,350.938 614.063,350.938c2.5,-0 129.062,-70.938 281.25,-157.5l276.562,-157.5l0.938,-523.75l0.625,-523.75l350,-0l-0,-206.25l-943.75,-0l-0,206.25l110.312,-0c60.313,-0 146.875,0.937 192.188,2.187l81.875,1.875l-0,947.5l-172.813,101.25c-94.687,55.938 -174.687,101.563 -177.187,101.563c-2.5,-0 -239.063,-135 -525.625,-299.688l-520.938,-300l0.625,-604.375l0.625,-604.687l103.125,-59.375l103.125,-59.688l0.938,-104.062c0.312,-56.875 -0.313,-103.75 -1.563,-103.438c-1.562,0 -88.125,49.688 -193.125,110.625Z" style="fill-rule:nonzero;"/><path d="M5890.43,866.959c-52.5,16.875 -82.188,56.25 -85.938,114.375c-5,77.813 36.875,130.938 112.5,142.813c44.688,6.875 92.813,-5.313 120.313,-30c28.125,-25.625 41.25,-57.813 41.25,-101.875c-0,-63.75 -28.438,-106.25 -83.75,-124.688c-25.625,-8.75 -78.125,-8.75 -104.375,-0.625Z" style="fill-rule:nonzero;"/><rect x="3144.18" y="948.522" width="237.5" height="968.75" style="fill-rule:nonzero;"/><path d="M5329.8,1189.46c-74.063,5.313 -142.5,37.188 -195.625,91.25l-21.25,21.25l-0,-100.312l-209.375,-0l-0,1031.25l228.125,-0l-0,-388.438l15.312,14.375c30.938,29.063 72.5,50.625 122.188,63.75c36.875,9.688 104.375,13.125 144.062,7.188c143.438,-20.938 250.313,-132.188 275.625,-287.5c16.563,-99.688 4.375,-193.438 -35,-273.438c-62.5,-126.25 -176.875,-189.687 -324.062,-179.375Zm14.375,197.188c58.75,13.75 107.187,64.375 122.187,127.5c5.625,24.062 5,72.5 -1.562,96.562c-24.375,93.125 -115,146.25 -208.75,122.5c-34.063,-8.75 -54.375,-20 -77.813,-43.75c-35,-35 -50.937,-77.187 -50.312,-133.125c0.937,-76.875 42.187,-139.062 109.062,-164.062c32.813,-12.188 70.313,-14.063 107.188,-5.625Z" style="fill-rule:nonzero;"/><path d="M6509.8,1188.21c-92.5,14.688 -162.188,47.5 -217.188,102.5c-63.437,63.125 -98.75,148.75 -103.75,250c-5.312,108.75 26.875,204.063 92.188,273.438c45,48.125 87.812,75.312 152.187,96.562c122.813,40.625 274.688,30.313 395,-26.562c27.5,-12.813 81.563,-46.25 81.563,-50.313c-0,-3.75 -85.938,-141.562 -88.438,-141.562c-1.25,-0 -15,7.812 -30.625,17.187c-32.187,19.375 -65.937,33.125 -105.312,42.813c-36.875,9.375 -113.125,10 -145.938,1.25c-34.375,-8.75 -71.25,-28.125 -91.562,-48.438c-15.938,-15.625 -38.125,-50.312 -38.125,-59.375c-0,-2.5 72.5,-3.437 264.062,-3.437l264.063,-0l2.187,-8.75c1.563,-4.688 2.5,-36.563 2.5,-70.938c0,-49.375 -1.25,-68.125 -5.937,-89.062c-33.438,-154.063 -139.688,-256.25 -293.75,-282.813c-25.625,-4.375 -111.25,-5.937 -133.125,-2.5Zm104.375,177.813c54.062,13.75 95,53.125 114.375,109.375c3.437,9.687 6.25,18.437 6.25,19.062c-0,0.313 -74.063,0.938 -164.375,0.938l-164.375,-0l2.187,-10.313c1.25,-5.312 7.188,-20.625 13.125,-33.437c19.688,-41.563 58.75,-73.438 104.688,-85.625c22.187,-6.25 64.375,-6.25 88.125,-0Z" style="fill-rule:nonzero;"/><path d="M7919.18,1190.71c-98.125,16.563 -180,64.063 -234.688,136.875c-48.75,64.688 -72.812,140.938 -72.5,231.875c0,114.375 35.938,203.75 110.625,275.313c50.938,48.437 114.688,80 190.313,94.062c45.625,8.438 127.812,6.875 175,-3.125c57.812,-12.187 109.062,-35 155,-68.75c19.375,-14.375 61.875,-55.312 66.875,-64.375c2.187,-4.062 -10.938,-19.062 -63.125,-71.562l-65.938,-66.25l-17.5,18.125c-78.437,80.312 -206.25,88.437 -276.875,17.812c-32.812,-32.812 -49.375,-75.937 -49.375,-129.687c-0.312,-55.313 15.938,-96.875 50,-130.625c34.688,-34.375 69.688,-48.438 119.688,-48.438c49.687,0.313 99.687,18.438 143.125,52.5l22.187,17.188l60.938,-69.375c33.75,-38.125 61.25,-71.25 61.25,-73.125c-0,-5 -37.5,-38.75 -61.25,-55c-43.125,-29.688 -106.25,-54.063 -165.313,-63.438c-34.375,-5.625 -115.312,-5.625 -148.437,0Z" style="fill-rule:nonzero;"/><path d="M8661.68,1189.15c-81.563,12.812 -165.938,55.625 -214.063,108.125c-50.312,55 -80.312,119.062 -92.812,197.5c-6.25,39.687 -4.375,120.312 3.437,154.687c24.375,109.063 87.5,191.563 182.813,239.688c124.062,62.5 307.812,61.25 445.937,-3.125c20.313,-9.375 62.5,-35 83.125,-50.313c2.5,-1.875 -74.375,-130 -83.75,-139.687c-3.437,-3.75 -8.437,-1.563 -30,11.25c-33.437,20.312 -65,33.75 -102.5,43.75c-26.25,6.875 -36.25,7.812 -81.562,7.812c-43.125,0 -55.625,-0.937 -75.938,-6.562c-53.437,-14.688 -98.125,-48.438 -117.187,-88.438l-9.688,-20l265.313,-0.937l265.312,-0.625l1.875,-13.75c1.25,-7.5 1.563,-43.75 0.938,-80.625c-1.25,-60 -2.188,-69.688 -10,-97.813c-10,-36.562 -33.438,-87.812 -53.125,-115.312c-50.625,-71.25 -115.313,-114.375 -205.625,-137.813c-28.438,-7.5 -39.063,-8.75 -93.125,-9.687c-33.438,-0.313 -69.063,0.312 -79.375,1.875Zm113.437,176.562c54.063,12.813 95.625,53.438 116.25,113.125l5.625,16.563l-164.062,-0c-141.563,-0 -163.75,-0.625 -163.75,-4.688c-0,-2.5 3.125,-12.5 6.562,-22.5c19.063,-50.937 60,-88.437 112.188,-102.187c22.5,-5.938 62.187,-5.938 87.187,-0.313Z" style="fill-rule:nonzero;"/><path d="M3937.93,1198.21c-51.25,11.25 -96.25,35.313 -136.563,73.438c-12.187,11.25 -22.812,20.625 -24.062,20.625c-0.938,-0 -1.875,-20.313 -1.875,-45.313l-0,-45.312l-209.375,-0l-0,715.625l228.125,-0l-0,-199.375c-0,-217.5 0.312,-220.313 18.437,-256.25c28.438,-56.25 91.875,-81.563 153.438,-60.938c31.562,10.625 53.75,34.688 66.562,72.813c6.563,20 6.875,23.437 7.813,231.875l0.937,211.875l221.25,-0l1.25,-204.063c0.938,-219.062 0.625,-215.312 17.813,-250.625c28.437,-58.437 102.812,-85.312 163.437,-58.437c30.938,13.75 54.063,46.25 61.25,86.25c2.188,12.187 3.438,89.687 3.438,222.812l-0,204.063l228.125,-0l-0,-238.438c-0,-261.562 -0.625,-271.875 -18.75,-321.562c-38.438,-105.313 -129.688,-165 -252.5,-165c-91.875,-0 -162.188,28.437 -229.063,93.125l-23.75,22.812l-10.312,-15.625c-16.563,-26.25 -55.313,-60.312 -85,-74.687c-37.813,-18.438 -56.563,-22.813 -108.75,-24.375c-36.25,-0.938 -50.625,-0 -71.875,4.687Z" style="fill-rule:nonzero;"/><path d="M7456.99,1195.4c-39.687,5.625 -82.5,22.187 -115.937,44.687c-7.813,5.313 -24.375,19.375 -36.563,31.563l-22.812,21.562l-0,-15.312c-0,-8.438 -0.938,-29.063 -2.188,-45.938l-1.875,-30.312l-208.437,-0l-0,715.625l227.812,-0l1.25,-180.625c0.938,-173.125 1.25,-181.25 7.813,-206.563c25.937,-99.375 99.687,-139.375 213.125,-115.937c16.25,3.125 30,5.312 30.625,4.687c1.25,-1.25 50.625,-204.062 50.625,-208.437c-0,-0.938 -12.5,-5 -28.125,-8.438c-31.875,-7.5 -85.938,-10.625 -115.313,-6.562Z" style="fill-rule:nonzero;"/><rect x="5828.55" y="1201.65" width="228.125" height="715.625" style="fill-rule:nonzero;"/><path d="M8317.3,2090.4c-34.375,15 -34.375,76.25 -0,93.75c15.625,7.812 44.687,7.812 58.437,-0c16.563,-9.688 22.813,-20.938 24.063,-42.813c1.875,-36.562 -15.938,-55.312 -52.188,-55.312c-11.25,0.312 -25,2.187 -30.312,4.375Z" style="fill-rule:nonzero;"/><path d="M6412.93,2098.52l-0,403.125l90,-0l1.25,-82.188c1.25,-90.312 2.5,-96.875 20.937,-112.187c17.813,-15.313 50.313,-14.375 65.313,1.562c11.25,12.188 13.125,28.438 13.125,112.188l-0,80.625l90.937,-0l-0.937,-105.938l-0.938,-105.625l-10.937,-21.562c-19.063,-37.188 -47.5,-52.813 -95.313,-52.813c-27.187,0.313 -49.375,8.125 -71.875,25.313l-10.937,8.125l-0,-150.625l-90.625,-0Z" style="fill-rule:nonzero;"/><rect x="7447.3" y="2098.52" width="93.75" height="403.125" style="fill-rule:nonzero;"/><path d="M5466.05,2120.4l-0,87.5l109.375,-0l-0,293.75l93.75,-0l-0,-293.75l112.5,-0l-0,-87.5l-315.625,-0Z" style="fill-rule:nonzero;"/><path d="M5881.68,2216.02c-41.563,9.062 -74.063,31.875 -94.688,66.875c-24.687,42.5 -23.75,113.125 1.875,156.875c10,17.187 34.688,40.312 51.875,49.375c49.688,25 126.25,24.375 180,-1.875c37.188,-18.125 36.25,-15.313 17.188,-46.563c-9.063,-14.687 -17.5,-27.5 -18.75,-28.125c-1.25,-0.937 -11.875,3.438 -23.75,9.375c-33.125,16.875 -71.563,20 -101.563,8.438c-11.25,-4.375 -27.187,-18.75 -32.812,-29.063l-4.688,-9.062l209.688,-0l-0,-29.063c-0,-64.062 -26.25,-110.625 -75.938,-135c-34.375,-16.562 -69.687,-20.625 -108.437,-12.187Zm61.875,71.562c14.687,6.25 24.687,15.625 32.187,30.313c3.125,6.562 5.938,12.5 5.938,13.437c-0,0.938 -28.125,1.563 -62.813,1.563c-55.937,-0 -62.5,-0.625 -60.937,-5c0.937,-2.813 1.875,-6.25 1.875,-7.5c-0,-1.563 4.687,-8.125 10,-14.375c18.75,-21.25 48.75,-28.75 73.75,-18.438Z" style="fill-rule:nonzero;"/><path d="M6216.05,2214.46c-25.313,4.375 -60,22.5 -78.125,40.938c-52.188,52.812 -53.438,151.875 -2.813,206.25c55.938,60.312 168.438,61.875 225.625,3.125l14.063,-14.688l-51.875,-55.625l-10.625,10.313c-19.375,19.375 -48.75,28.125 -74.688,21.875c-43.75,-10.625 -63.437,-65 -38.125,-105.938c20.938,-33.437 70,-38.75 106.25,-10.937c5.938,4.375 11.875,7.5 13.438,6.875c1.875,-0.625 13.437,-12.813 26.25,-27.5l23.125,-26.563l-9.688,-10.312c-12.812,-13.125 -36.562,-26.875 -58.437,-33.125c-21.563,-6.25 -62.188,-8.75 -84.375,-4.688Z" style="fill-rule:nonzero;"/><path d="M7209.8,2214.15c-21.25,3.437 -41.25,10.312 -57.813,20c-16.25,9.687 -42.812,37.812 -51.25,54.375c-8.75,17.187 -15.937,48.125 -15.937,69.687c-0.313,94.688 70.312,155.625 171.875,148.75c60.937,-4.062 105.625,-32.812 129.062,-82.812c8.75,-18.75 10,-24.375 10.938,-55.625c1.875,-50.625 -7.188,-78.75 -35,-109.375c-15.313,-17.188 -43.75,-34.063 -68.75,-40.625c-20.938,-5.625 -61.563,-7.813 -83.125,-4.375Zm61.875,84.062c33.437,17.188 46.25,59.375 28.75,95.313c-18.75,39.062 -73.438,47.5 -104.688,16.25c-31.875,-31.875 -24.375,-90 13.75,-110.313c17.813,-9.375 45.313,-9.687 62.188,-1.25Z" style="fill-rule:nonzero;"/><path d="M7720.74,2212.9c-48.125,7.5 -85.625,30 -107.812,64.375c-17.5,26.562 -23.125,50.937 -21.25,92.187c1.25,30 2.5,36.563 11.25,55c24.062,51.563 68.437,79.063 133.437,82.5c99.688,5.313 167.5,-55 167.188,-148.75c-0.313,-65.937 -38.75,-119.062 -99.688,-138.125c-20,-5.937 -65,-10 -83.125,-7.187Zm63.75,89.687c34.063,22.5 38.438,78.125 8.125,107.188c-38.125,36.875 -99.062,18.125 -110.625,-33.438c-7.187,-32.5 6.563,-63.125 35.625,-79.062c6.875,-3.75 15.625,-5 31.563,-4.375c18.125,0.937 24.375,2.5 35.312,9.687Z" style="fill-rule:nonzero;"/><path d="M8559.8,2214.46c-20.938,3.75 -51.875,17.813 -68.75,31.25c-48.438,39.063 -63.75,121.875 -33.75,184.063c19.062,39.062 58.75,67.187 106.562,75.312c32.188,5.313 77.188,1.875 107.5,-8.125c25,-8.437 54.063,-24.687 54.063,-30.312c-0,-2.5 -17.813,-32.5 -31.563,-53.438c-1.25,-1.562 -12.187,2.188 -25.312,8.438c-39.063,19.375 -80.938,20.937 -110.313,3.437c-11.562,-6.562 -26.562,-24.062 -26.562,-30.937c-0,-0.938 46.25,-1.875 102.812,-1.875l103.125,-0l2.188,-14.063c4.687,-33.125 -5.938,-78.437 -26.25,-107.5c-30,-43.75 -93.438,-66.875 -153.75,-56.25Zm53.437,72.188c5.938,1.875 14.063,6.25 18.438,9.375c8.437,6.562 21.875,26.562 21.875,32.812c-0,3.125 -14.688,4.063 -62.188,4.063l-62.5,-0l3.438,-10c4.687,-13.125 25,-32.813 37.5,-36.563c14.375,-4.062 30.937,-4.062 43.437,0.313Z" style="fill-rule:nonzero;"/><path d="M6902.61,2217.27c-17.812,4.687 -36.875,15 -49.687,27.5l-11.875,11.25l-0,-35.625l-84.375,-0l-0,281.25l90,-0l1.25,-82.188c1.25,-90.312 2.5,-96.875 20.937,-112.187c17.5,-15 50.625,-14.375 64.375,0.625c12.188,13.437 13.75,26.562 14.063,111.562l-0,82.188l90.937,-0l-0.937,-104.063c-0.938,-99.687 -1.25,-104.375 -8.125,-121.562c-14.688,-36.563 -47.5,-58.438 -90.625,-60.625c-13.125,-0.625 -29.375,0.312 -35.938,1.875Z" style="fill-rule:nonzero;"/><path d="M8841.05,2219.15c-25,6.562 -43.75,19.375 -54.688,36.875c-7.5,12.5 -9.375,19.375 -10.312,38.437c-1.25,19.688 -0.313,25.313 6.875,39.688c13.125,26.875 32.812,39.062 90.625,55.937c20,5.938 39.375,13.125 42.5,16.25c13.125,11.875 4.062,24.375 -20.313,28.125c-17.5,2.813 -54.687,-5.625 -80,-18.437l-21.25,-10.625l-4.375,6.875c-10,15.312 -27.5,52.812 -26.25,56.25c2.5,6.562 40.938,23.437 68.125,30.312c21.25,5.625 32.5,6.563 65,5.313c34.688,-0.938 41.563,-2.188 58.125,-9.688c32.813,-15.312 50.625,-38.125 53.75,-69.687c5,-47.5 -23.75,-77.5 -93.125,-96.563c-47.812,-13.437 -55.937,-17.812 -55.937,-30c-0,-4.375 3.75,-7.812 11.875,-11.25c15.625,-6.562 50.312,-1.25 79.375,12.188c11.875,5.312 21.875,9.062 22.187,8.437c3.75,-4.375 30.313,-55.937 30.313,-58.125c-0,-5.312 -47.813,-25.312 -72.5,-30.312c-29.688,-6.25 -67.188,-5.938 -90,-0Z" style="fill-rule:nonzero;"/><path d="M8043.24,2223.83c-35.625,8.438 -66.875,32.5 -82.187,64.063c-8.438,17.187 -9.063,20.937 -9.063,55.937c0,35.625 0.313,38.438 9.688,56.563l9.687,19.062l-10.937,10.313c-16.875,16.25 -23.438,34.062 -21.875,61.25c0.625,16.875 2.812,25 7.5,31.562l6.562,8.438l-9.062,12.812c-10.625,15 -15,38.75 -11.563,61.25c8.125,50.938 64.688,77.813 164.375,77.813c44.688,-0 79.063,-5.938 105.313,-18.125c25.937,-12.188 37.5,-22.813 47.5,-42.813c7.187,-15 8.125,-20 6.875,-40.312c-0.938,-19.688 -2.5,-25.313 -10.313,-36.875c-20,-28.125 -59.687,-40.938 -143.125,-46.25c-52.5,-3.125 -70.937,-6.563 -78.75,-14.375c-6.25,-6.25 -5.937,-11.563 0.938,-19.375c5,-6.25 5.937,-6.25 27.187,-1.563c43.75,9.375 100.625,-0.312 133.438,-22.812c16.875,-11.875 32.187,-32.813 38.75,-53.75c7.812,-25 5,-63.438 -5.625,-82.813l-8.438,-14.687l46.563,-0l-0,-68.75l-100.625,0.312c-55.625,0.313 -106.25,1.563 -112.813,3.125Zm71.875,73.75c13.75,6.563 25.313,23.75 27.813,41.563c4.375,35 -30,64.687 -66.563,57.812c-15.625,-2.812 -37.187,-24.375 -40,-40c-4.687,-24.062 6.563,-49.062 26.563,-59.062c13.75,-7.188 37.812,-7.188 52.187,-0.313Zm-23.125,270.938c63.75,4.687 80.313,8.75 80.313,20.312c-0,13.438 -19.688,21.25 -60.625,24.063c-33.125,2.187 -73.75,-2.813 -87.5,-10.625c-14.375,-8.438 -19.063,-20 -12.813,-32.188c4.063,-7.812 6.563,-9.375 12.5,-7.812c4.063,0.937 35,4.062 68.125,6.25Z" style="fill-rule:nonzero;"/><rect x="8300.43" y="2220.4" width="90.625" height="281.25" style="fill-rule:nonzero;"/></svg>