<svg width="1204" height="210" viewBox="0 0 1104 210" style="background-color:#001e42" fill="#fff" xmlns="http://www.w3.org/2000/svg">
<path d="M301.903 162.334C294.288 162.334 287.123 160.881 280.41 157.975C273.696 155.069 267.834 151.11 262.824 146.099C257.914 141.089 254.006 135.276 251.101 128.662C248.195 121.948 246.742 114.783 246.742 107.167C246.742 99.5503 248.195 92.4352 251.101 85.8211C254.006 79.1068 257.914 73.2443 262.824 68.2336C267.834 63.2229 273.696 59.2645 280.41 56.3583C287.123 53.4521 294.288 51.999 301.903 51.999C307.414 51.999 312.675 52.7005 317.685 54.1035C322.795 55.5065 327.455 57.5108 331.663 60.1163C335.972 62.6216 339.83 65.6782 343.237 69.2858C346.644 72.7933 349.499 76.7518 351.804 81.1611L330.762 92.5855C327.756 87.174 323.848 82.9149 319.038 79.8083C314.328 76.7016 308.617 75.1483 301.903 75.1483C297.494 75.1483 293.386 76.0002 289.578 77.7038C285.871 79.4074 282.614 81.7624 279.809 84.7688C277.003 87.675 274.798 91.0823 273.195 94.9906C271.592 98.7987 270.79 102.857 270.79 107.167C270.79 111.476 271.592 115.584 273.195 119.493C274.798 123.301 277.003 126.708 279.809 129.715C282.614 132.621 285.871 134.926 289.578 136.629C293.386 138.333 297.494 139.185 301.903 139.185C308.617 139.185 314.328 137.631 319.038 134.525C323.848 131.418 327.756 127.159 330.762 121.748L351.804 133.172C349.499 137.581 346.644 141.59 343.237 145.198C339.83 148.705 335.972 151.762 331.663 154.367C327.455 156.872 322.795 158.827 317.685 160.23C312.675 161.633 307.414 162.334 301.903 162.334Z"/>
<path d="M363.821 85.3701H386.517V96.6441C387.72 93.3371 389.924 90.481 393.131 88.0759C396.437 85.6707 400.195 84.4682 404.403 84.4682C405.506 84.4682 406.658 84.5183 407.86 84.6185C409.063 84.7187 410.366 84.9693 411.768 85.3701V108.369C410.065 107.768 408.412 107.317 406.808 107.016C405.205 106.716 403.502 106.565 401.698 106.565C396.788 106.565 393.03 108.269 390.425 111.676C387.82 115.083 386.517 119.493 386.517 124.904V160.53H363.821V85.3701Z"/>
<path d="M452.161 162.184C447.251 162.184 442.642 161.132 438.333 159.027C434.125 156.923 430.467 154.117 427.361 150.609C424.255 147.001 421.8 142.843 419.996 138.133C418.193 133.322 417.291 128.261 417.291 122.95C417.291 117.639 418.193 112.628 419.996 107.918C421.8 103.108 424.255 98.949 427.361 95.4416C430.467 91.8339 434.125 88.9778 438.333 86.8733C442.642 84.7688 447.251 83.7166 452.161 83.7166C454.666 83.7166 456.971 84.0172 459.075 84.6185C461.28 85.1196 463.234 85.8211 464.937 86.723C466.741 87.6249 468.244 88.627 469.446 89.7294C470.749 90.8317 471.801 91.884 472.603 92.8861V85.3701H495.299V160.53H472.603V153.014C471.801 154.016 470.749 155.069 469.446 156.171C468.244 157.273 466.741 158.275 464.937 159.177C463.234 160.079 461.28 160.781 459.075 161.282C456.971 161.883 454.666 162.184 452.161 162.184ZM457.272 141.59C462.382 141.59 466.49 139.836 469.597 136.329C472.803 132.821 474.406 128.362 474.406 122.95C474.406 117.539 472.803 113.079 469.597 109.572C466.49 106.064 462.382 104.31 457.272 104.31C452.161 104.31 448.003 106.064 444.796 109.572C441.69 113.079 440.137 117.539 440.137 122.95C440.137 128.362 441.69 132.821 444.796 136.329C448.003 139.836 452.161 141.59 457.272 141.59Z"/>
<path d="M557.116 162.184C554.611 162.184 552.256 161.883 550.051 161.282C547.947 160.781 545.993 160.079 544.19 159.177C542.486 158.275 540.983 157.273 539.681 156.171C538.378 155.069 537.376 154.016 536.674 153.014V160.53H513.979V47.79H536.674V92.8861C537.376 91.884 538.378 90.8317 539.681 89.7294C540.983 88.627 542.486 87.6249 544.19 86.723C545.993 85.8211 547.947 85.1196 550.051 84.6185C552.256 84.0172 554.611 83.7166 557.116 83.7166C562.026 83.7166 566.585 84.7688 570.793 86.8733C575.102 88.9778 578.81 91.8339 581.916 95.4416C585.022 98.949 587.477 103.108 589.281 107.918C591.084 112.628 591.986 117.639 591.986 122.95C591.986 128.261 591.084 133.322 589.281 138.133C587.477 142.843 585.022 147.001 581.916 150.609C578.81 154.117 575.102 156.923 570.793 159.027C566.585 161.132 562.026 162.184 557.116 162.184ZM552.005 141.59C557.116 141.59 561.224 139.836 564.33 136.329C567.537 132.821 569.14 128.362 569.14 122.95C569.14 117.539 567.537 113.079 564.33 109.572C561.224 106.064 557.116 104.31 552.005 104.31C546.895 104.31 542.737 106.064 539.53 109.572C536.424 113.079 534.871 117.539 534.871 122.95C534.871 128.362 536.424 132.821 539.53 136.329C542.737 139.836 546.895 141.59 552.005 141.59Z"/>
<path d="M682.106 160.53L630.101 94.5396V160.53H606.203V53.8029H626.795L678.649 119.793V53.8029H702.698V160.53H682.106Z"/>
<path d="M756.852 162.184C751.341 162.184 746.13 161.282 741.22 159.478C736.411 157.674 732.202 155.069 728.595 151.661C724.988 148.254 722.132 144.145 720.028 139.335C717.923 134.425 716.871 128.963 716.871 122.95C716.871 117.338 717.823 112.177 719.727 107.467C721.731 102.657 724.487 98.4981 727.994 94.9906C731.601 91.4831 735.809 88.7273 740.619 86.723C745.429 84.7187 750.69 83.7166 756.401 83.7166C761.311 83.7166 766.021 84.5183 770.53 86.1217C775.139 87.6249 779.147 89.9298 782.554 93.0364C785.961 96.0428 788.666 99.851 790.67 104.461C792.775 108.97 793.827 114.282 793.827 120.395C793.827 121.397 793.777 122.549 793.677 123.852C793.677 125.055 793.576 126.558 793.376 128.362H738.816C739.517 132.871 741.671 136.228 745.279 138.433C748.886 140.538 752.844 141.59 757.153 141.59C761.562 141.59 765.319 140.738 768.425 139.034C771.632 137.231 773.937 135.226 775.339 133.022L792.173 145.649C788.666 150.659 783.857 154.668 777.744 157.674C771.732 160.681 764.768 162.184 756.852 162.184ZM771.281 113.48C770.279 109.471 768.275 106.615 765.269 104.912C762.263 103.108 759.107 102.206 755.8 102.206C754.096 102.206 752.393 102.406 750.69 102.807C748.986 103.208 747.383 103.859 745.88 104.761C744.377 105.663 743.024 106.816 741.822 108.219C740.719 109.622 739.918 111.376 739.417 113.48H771.281Z"/>
<path d="M851.265 162.184C848.76 162.184 846.405 161.883 844.201 161.282C842.097 160.781 840.143 160.079 838.339 159.177C836.636 158.275 835.133 157.273 833.83 156.171C832.527 155.069 831.525 154.016 830.824 153.014V160.53H808.128V47.79H830.824V92.8861C831.525 91.884 832.527 90.8317 833.83 89.7294C835.133 88.627 836.636 87.6249 838.339 86.723C840.143 85.8211 842.097 85.1196 844.201 84.6185C846.405 84.0172 848.76 83.7166 851.265 83.7166C856.175 83.7166 860.734 84.7688 864.943 86.8733C869.252 88.9778 872.959 91.8339 876.065 95.4416C879.172 98.949 881.627 103.108 883.43 107.918C885.234 112.628 886.136 117.639 886.136 122.95C886.136 128.261 885.234 133.322 883.43 138.133C881.627 142.843 879.172 147.001 876.065 150.609C872.959 154.117 869.252 156.923 864.943 159.027C860.734 161.132 856.175 162.184 851.265 162.184ZM846.155 141.59C851.265 141.59 855.374 139.836 858.48 136.329C861.686 132.821 863.29 128.362 863.29 122.95C863.29 117.539 861.686 113.079 858.48 109.572C855.374 106.064 851.265 104.31 846.155 104.31C841.045 104.31 836.886 106.064 833.68 109.572C830.573 113.079 829.02 117.539 829.02 122.95C829.02 128.362 830.573 132.821 833.68 136.329C836.886 139.836 841.045 141.59 846.155 141.59Z"/>
<path d="M927.812 162.184C918.493 162.184 911.429 159.077 906.619 152.864C901.81 146.651 899.405 138.433 899.405 128.211V85.3701H922.101V124.303C922.101 129.815 922.952 134.074 924.656 137.08C926.459 140.087 929.466 141.59 933.674 141.59C937.983 141.59 941.39 140.037 943.895 136.93C946.5 133.823 947.803 128.813 947.803 121.898V85.3701H970.499V160.53H947.803V152.864C945.999 155.469 943.444 157.674 940.137 159.478C936.83 161.282 932.722 162.184 927.812 162.184Z"/>
<path d="M989.109 47.79H1011.81V160.53H989.109V47.79Z"/>
<path d="M1060.86 162.184C1055.95 162.184 1051.34 161.132 1047.03 159.027C1042.83 156.923 1039.17 154.117 1036.06 150.609C1032.96 147.001 1030.5 142.843 1028.7 138.133C1026.89 133.322 1025.99 128.261 1025.99 122.95C1025.99 117.639 1026.89 112.628 1028.7 107.918C1030.5 103.108 1032.96 98.949 1036.06 95.4416C1039.17 91.8339 1042.83 88.9778 1047.03 86.8733C1051.34 84.7688 1055.95 83.7166 1060.86 83.7166C1063.37 83.7166 1065.67 84.0172 1067.78 84.6185C1069.98 85.1196 1071.94 85.8211 1073.64 86.723C1075.44 87.6249 1076.95 88.627 1078.15 89.7294C1079.45 90.8317 1080.5 91.884 1081.3 92.8861V85.3701H1104V160.53H1081.3V153.014C1080.5 154.016 1079.45 155.069 1078.15 156.171C1076.95 157.273 1075.44 158.275 1073.64 159.177C1071.94 160.079 1069.98 160.781 1067.78 161.282C1065.67 161.883 1063.37 162.184 1060.86 162.184ZM1065.97 141.59C1071.08 141.59 1075.19 139.836 1078.3 136.329C1081.5 132.821 1083.11 128.362 1083.11 122.95C1083.11 117.539 1081.5 113.079 1078.3 109.572C1075.19 106.064 1071.08 104.31 1065.97 104.31C1060.86 104.31 1056.7 106.064 1053.5 109.572C1050.39 113.079 1048.84 117.539 1048.84 122.95C1048.84 128.362 1050.39 132.821 1053.5 136.329C1056.7 139.836 1060.86 141.59 1065.97 141.59Z"/>
<path fill-rule="evenodd" clip-rule="evenodd" d="M96.4803 54.5854C69.7236 89.8658 69.8784 134.941 96.826 155.264C103.908 160.605 112.136 163.705 120.903 164.732C96.0318 184.934 67.3818 191.203 48.0369 178.045C21.5068 160 22.524 112.249 50.309 71.3908C73.5101 37.2728 108.039 18.749 134.247 24.0723C120.404 30.1952 107.116 40.5608 96.4803 54.5854ZM131.638 99.6432C119.141 111.453 104.859 119.304 92.8011 121.916C99.9208 147.367 127.29 149.323 127.29 149.323C127.29 149.323 143.578 145.578 155.877 117.941C166.005 95.1833 165.122 71.6675 154.914 59.7001C154.065 71.2666 145.731 86.3244 131.638 99.6432Z"/>
</svg>
