<svg version="1.0" xmlns="http://www.w3.org/2000/svg"
 width="2834.000000pt" height="904.000000pt" viewBox="0 0 2834.000000 904.000000"
 preserveAspectRatio="xMidYMid meet"
 style="fill:rgb(128,128,128);">
<g transform="translate(0.000000,904.000000) scale(0.100000,-0.100000)" stroke="none">
<path d="M3145 8604 c-418 -240 -888 -510 -1045 -599 l-285 -163 4 -2364 c2
-1300 4 -2364 5 -2365 1 -1 148 78 326 177 l325 179 3 2043 2 2043 711 410
c391 226 716 411 723 413 6 1 763 -431 1681 -961 l1670 -964 0 -1934 0 -1933
-487 -280 -487 -281 -1 -333 0 -333 28 15 c15 8 362 208 772 444 l745 429 0
2272 0 2272 -1075 620 c-2342 1351 -2827 1629 -2841 1629 -8 0 -356 -196 -774
-436z"/>
<path d="M615 7145 l-610 -353 0 -2273 0 -2273 1950 -1123 c1072 -618 1957
-1123 1965 -1123 8 0 413 227 900 504 l885 504 3 1676 2 1676 560 0 560 0 0
330 0 330 -1510 0 -1510 0 0 -330 0 -330 353 0 c193 0 470 -3 615 -7 l262 -6
0 -1516 0 -1516 -553 -324 c-303 -179 -559 -325 -567 -325 -8 0 -765 432
-1682 959 l-1667 960 2 1934 2 1935 330 190 330 191 3 333 c1 182 -1 332 -5
331 -5 0 -282 -159 -618 -354z"/>
<path d="M18058 6751 c-168 -54 -263 -180 -275 -366 -16 -249 118 -419 360
-457 143 -22 297 17 385 96 90 82 132 185 132 326 0 204 -91 340 -268 399 -82
28 -250 28 -334 2z"/>
<path d="M9270 4940 l0 -1550 380 0 380 0 0 1550 0 1550 -380 0 -380 0 0
-1550z"/>
<path d="M16264 5719 c-237 -17 -456 -119 -626 -292 l-68 -68 0 161 0 160
-335 0 -335 0 0 -1650 0 -1650 365 0 365 0 0 621 0 622 49 -46 c99 -93 232
-162 391 -204 118 -31 334 -42 461 -23 459 67 801 423 882 920 53 319 14 619
-112 875 -200 404 -566 607 -1037 574z m46 -631 c188 -44 343 -206 391 -408
18 -77 16 -232 -5 -309 -78 -298 -368 -468 -668 -392 -109 28 -174 64 -249
140 -112 112 -163 247 -161 426 3 246 135 445 349 525 105 39 225 45 343 18z"/>
<path d="M20040 5723 c-296 -47 -519 -152 -695 -328 -203 -202 -316 -476 -332
-800 -17 -348 86 -653 295 -875 144 -154 281 -241 487 -309 393 -130 879 -97
1264 85 88 41 261 148 261 161 0 12 -275 453 -283 453 -4 0 -48 -25 -98 -55
-103 -62 -211 -106 -337 -137 -118 -30 -362 -32 -467 -4 -110 28 -228 90 -293
155 -51 50 -122 161 -122 190 0 8 232 11 845 11 l845 0 7 28 c5 15 8 117 8
227 0 158 -4 218 -19 285 -107 493 -447 820 -940 905 -82 14 -356 19 -426 8z
m334 -569 c173 -44 304 -170 366 -350 11 -31 20 -59 20 -61 0 -1 -237 -3 -526
-3 l-526 0 7 33 c4 17 23 66 42 107 63 133 188 235 335 274 71 20 206 20 282
0z"/>
<path d="M24550 5715 c-314 -53 -576 -205 -751 -438 -156 -207 -233 -451 -232
-742 0 -366 115 -652 354 -881 163 -155 367 -256 609 -301 146 -27 409 -22
560 10 185 39 349 112 496 220 62 46 198 177 214 206 7 13 -35 61 -202 229
l-211 212 -56 -58 c-251 -257 -660 -283 -886 -57 -105 105 -158 243 -158 415
-1 177 51 310 160 418 111 110 223 155 383 155 159 -1 319 -59 458 -168 l71
-55 195 222 c108 122 196 228 196 234 0 16 -120 124 -196 176 -138 95 -340
173 -529 203 -110 18 -369 18 -475 0z"/>
<path d="M26926 5720 c-261 -41 -531 -178 -685 -346 -161 -176 -257 -381 -297
-632 -20 -127 -14 -385 11 -495 78 -349 280 -613 585 -767 397 -200 985 -196
1427 10 65 30 200 112 266 161 8 6 -238 416 -268 447 -11 12 -27 5 -96 -36
-107 -65 -208 -108 -328 -140 -84 -22 -116 -25 -261 -25 -138 0 -178 3 -243
21 -171 47 -314 155 -375 283 l-31 64 849 3 849 2 6 44 c4 24 5 140 3 258 -4
192 -7 223 -32 313 -32 117 -107 281 -170 369 -162 228 -369 366 -658 441 -91
24 -125 28 -298 31 -107 1 -221 -1 -254 -6z m363 -565 c173 -41 306 -171 372
-362 l18 -53 -525 0 c-453 0 -524 2 -524 15 0 8 10 40 21 72 61 163 192 283
359 327 72 19 199 19 279 1z"/>
<path d="M11810 5691 c-164 -36 -308 -113 -437 -235 -39 -36 -73 -66 -77 -66
-3 0 -6 65 -6 145 l0 145 -335 0 -335 0 0 -1145 0 -1145 365 0 365 0 0 638 c0
696 1 705 59 820 91 180 294 261 491 195 101 -34 172 -111 213 -233 21 -64 22
-75 25 -742 l3 -678 354 0 354 0 4 653 c3 701 2 689 57 802 91 187 329 273
523 187 99 -44 173 -148 196 -276 7 -39 11 -287 11 -713 l0 -653 365 0 365 0
0 763 c0 837 -2 870 -60 1029 -123 337 -415 528 -808 528 -294 0 -519 -91
-733 -298 l-76 -73 -33 50 c-53 84 -177 193 -272 239 -121 59 -181 73 -348 78
-116 3 -162 0 -230 -15z"/>
<path d="M23071 5700 c-127 -18 -264 -71 -371 -143 -25 -17 -78 -62 -117 -101
l-73 -69 0 49 c0 27 -3 93 -7 147 l-6 97 -334 0 -333 0 0 -1145 0 -1145 364 0
365 0 4 578 c3 554 4 580 25 661 83 318 319 446 682 371 52 -10 96 -17 98 -15
4 4 162 653 162 667 0 3 -40 16 -90 27 -102 24 -275 34 -369 21z"/>
<path d="M17860 4535 l0 -1145 365 0 365 0 0 1145 0 1145 -365 0 -365 0 0
-1145z"/>
<path d="M25824 2836 c-110 -48 -110 -244 0 -300 50 -25 143 -25 187 0 53 31
73 67 77 137 6 117 -51 177 -167 177 -36 -1 -80 -7 -97 -14z"/>
<path d="M19730 2165 l0 -645 144 0 144 0 4 263 c4 289 8 310 67 359 57 49
161 46 209 -5 36 -39 42 -91 42 -359 l0 -258 146 0 145 0 -3 339 -3 338 -35
69 c-61 119 -152 169 -305 169 -87 -1 -158 -26 -230 -81 l-35 -26 0 241 0 241
-145 0 -145 0 0 -645z"/>
<path d="M23040 2165 l0 -645 150 0 150 0 0 645 0 645 -150 0 -150 0 0 -645z"/>
<path d="M16700 2600 l0 -140 175 0 175 0 0 -470 0 -470 150 0 150 0 0 470 0
470 180 0 180 0 0 140 0 140 -505 0 -505 0 0 -140z"/>
<path d="M18030 2434 c-133 -29 -237 -102 -303 -214 -79 -136 -76 -362 6 -502
32 -55 111 -129 166 -158 159 -80 404 -78 576 6 119 58 116 49 55 149 -29 47
-56 88 -60 90 -4 3 -38 -11 -76 -30 -106 -54 -229 -64 -325 -27 -36 14 -87 60
-105 93 l-15 29 336 0 335 0 0 93 c0 205 -84 354 -243 432 -110 53 -223 66
-347 39z m198 -229 c47 -20 79 -50 103 -97 10 -21 19 -40 19 -43 0 -3 -90 -5
-201 -5 -179 0 -200 2 -195 16 3 9 6 20 6 24 0 5 15 26 32 46 60 68 156 92
236 59z"/>
<path d="M19100 2439 c-81 -14 -192 -72 -250 -131 -167 -169 -171 -486 -9
-660 179 -193 539 -198 722 -10 l45 47 -83 89 -83 89 -34 -33 c-62 -62 -156
-90 -239 -70 -140 34 -203 208 -122 339 67 107 224 124 340 35 19 -14 38 -24
43 -22 6 2 43 41 84 88 l74 85 -31 33 c-41 42 -117 86 -187 106 -69 20 -199
28 -270 15z"/>
<path d="M22280 2440 c-68 -11 -132 -33 -185 -64 -52 -31 -137 -121 -164 -174
-28 -55 -51 -154 -51 -223 -1 -303 225 -498 550 -476 195 13 338 105 413 265
28 60 32 78 35 178 6 162 -23 252 -112 350 -49 55 -140 109 -220 130 -67 18
-197 25 -266 14z m198 -269 c107 -55 148 -190 92 -305 -60 -125 -235 -152
-335 -52 -102 102 -78 288 44 353 57 30 145 31 199 4z"/>
<path d="M23915 2444 c-154 -24 -274 -96 -345 -206 -56 -85 -74 -163 -68 -295
4 -96 8 -117 36 -176 77 -165 219 -253 427 -264 319 -17 536 176 535 476 -1
211 -124 381 -319 442 -64 19 -208 32 -266 23z m204 -287 c109 -72 123 -250
26 -343 -122 -118 -317 -58 -354 107 -23 104 21 202 114 253 22 12 50 16 101
14 58 -3 78 -8 113 -31z"/>
<path d="M26600 2439 c-67 -12 -166 -57 -220 -100 -155 -125 -204 -390 -108
-589 61 -125 188 -215 341 -241 103 -17 247 -6 344 26 80 27 173 79 173 97 0
8 -57 104 -101 171 -4 5 -39 -7 -81 -27 -125 -62 -259 -67 -353 -11 -37 21
-85 77 -85 99 0 3 148 6 329 6 l330 0 7 45 c15 106 -19 251 -84 344 -96 140
-299 214 -492 180z m171 -231 c19 -6 45 -20 59 -30 27 -21 70 -85 70 -105 0
-10 -47 -13 -199 -13 l-200 0 11 32 c15 42 80 105 120 117 46 13 99 13 139 -1z"/>
<path d="M21297 2430 c-57 -15 -118 -48 -159 -88 l-38 -36 0 57 0 57 -135 0
-135 0 0 -450 0 -450 144 0 144 0 4 263 c4 289 8 310 67 359 56 48 162 46 206
-2 39 -43 44 -85 45 -357 l0 -263 146 0 145 0 -3 333 c-3 319 -4 334 -26 389
-47 117 -152 187 -290 194 -42 2 -94 -1 -115 -6z"/>
<path d="M27500 2424 c-80 -21 -140 -62 -175 -118 -24 -40 -30 -62 -33 -123
-4 -63 -1 -81 22 -127 42 -86 105 -125 290 -179 64 -19 126 -42 136 -52 42
-38 13 -78 -65 -90 -56 -9 -175 18 -256 59 l-68 34 -14 -22 c-32 -49 -88 -169
-84 -180 8 -21 131 -75 218 -97 68 -18 104 -21 208 -17 111 3 133 7 186 31
105 49 162 122 172 223 16 152 -76 248 -298 309 -153 43 -179 57 -179 96 0 14
12 25 38 36 50 21 161 4 254 -39 38 -17 70 -29 71 -27 12 14 97 179 97 186 0
17 -153 81 -232 97 -95 20 -215 19 -288 0z"/>
<path d="M24947 2409 c-114 -27 -214 -104 -263 -205 -27 -55 -29 -67 -29 -179
0 -114 1 -123 31 -181 l31 -61 -35 -33 c-54 -52 -75 -109 -70 -196 2 -54 9
-80 24 -101 l21 -27 -29 -41 c-34 -48 -48 -124 -37 -196 26 -163 207 -249 526
-249 143 0 253 19 337 58 83 39 120 73 152 137 23 48 26 64 22 129 -3 63 -8
81 -33 118 -64 90 -191 131 -458 148 -168 10 -227 21 -252 46 -20 20 -19 37 3
62 16 20 19 20 87 5 140 -30 322 1 427 73 54 38 103 105 124 172 25 80 16 203
-18 265 l-27 47 75 0 74 0 0 110 0 110 -322 -1 c-178 -1 -340 -5 -361 -10z
m230 -236 c44 -21 81 -76 89 -133 14 -112 -96 -207 -213 -185 -50 9 -119 78
-128 128 -15 77 21 157 85 189 44 23 121 23 167 1z m-74 -867 c204 -15 257
-28 257 -65 0 -43 -63 -68 -194 -77 -106 -7 -236 9 -280 34 -46 27 -61 64 -41
103 13 25 21 30 40 25 13 -3 112 -13 218 -20z"/>
<path d="M25770 1970 l0 -450 145 0 145 0 0 450 0 450 -145 0 -145 0 0 -450z"/>
</g>
</svg>
